<?xml version="1.0" encoding="UTF-8" standalone="no"?>
<!-- Created with Inkscape (http://www.inkscape.org/) -->

<svg
   version="1.1"
   id="svg2"
   xml:space="preserve"
   width="232.94933"
   height="26.194267"
   viewBox="0 0 232.94933 26.194267"
   sodipodi:docname="a2z corp.ai"
   xmlns:inkscape="http://www.inkscape.org/namespaces/inkscape"
   xmlns:sodipodi="http://sodipodi.sourceforge.net/DTD/sodipodi-0.dtd"
   xmlns="http://www.w3.org/2000/svg"
   xmlns:svg="http://www.w3.org/2000/svg"><defs
     id="defs6"><clipPath
       clipPathUnits="userSpaceOnUse"
       id="clipPath16"><path
         d="M 0,19.646 H 174.712 V 0 H 0 Z"
         id="path14" /></clipPath></defs><sodipodi:namedview
     id="namedview4"
     pagecolor="#ffffff"
     bordercolor="#666666"
     borderopacity="1.0"
     inkscape:pageshadow="2"
     inkscape:pageopacity="0.0"
     inkscape:pagecheckerboard="0" /><g
     id="g8"
     inkscape:groupmode="layer"
     inkscape:label="a2z corp"
     transform="matrix(1.3333333,0,0,-1.3333333,0,26.194267)"><g
       id="g10"><g
         id="g12"
         clip-path="url(#clipPath16)"><g
           id="g18"
           transform="translate(5.058,11.1364)"><path
             d="m 0,0 c -0.357,-0.268 -0.79,-0.441 -1.109,-0.518 -1.053,-0.23 -1.467,-0.747 -1.467,-1.667 0,-0.786 0.282,-1.438 0.978,-1.438 0.695,0 1.598,0.46 1.598,1.591 z m -4.738,1.993 v 0.25 c 0,2.376 1.598,3.181 3.553,3.181 3.084,0 3.667,-1.303 3.667,-3.162 v -5.425 c 0,-0.958 0.056,-1.399 0.32,-1.993 H 0.32 C 0.15,-4.83 0.075,-4.428 0,-4.083 h -0.038 c -0.601,-1.073 -1.335,-1.341 -2.576,-1.341 -1.805,0 -2.444,1.571 -2.444,2.951 0,1.936 0.771,2.722 2.557,3.22 L -1.034,1.15 C -0.263,1.361 0,1.667 0,2.357 c 0,0.786 -0.338,1.266 -1.203,1.266 -0.79,0 -1.204,-0.537 -1.204,-1.342 V 1.993 Z"
             style="fill:#000000;fill-opacity:1;fill-rule:nonzero;stroke:none"
             id="path20" /></g><g
           id="g22"
           transform="translate(17.2799,5.9803)"><path
             d="m 0,0 h -8.198 c 0,2.415 0.959,4.083 2.933,5.942 l 1.091,1.035 c 1.184,1.092 1.391,1.706 1.391,3.105 0,1.131 -0.47,1.687 -1.316,1.687 -1.354,0 -1.485,-1.208 -1.504,-2.645 h -2.595 v 0.517 c 0,2.511 1.297,3.929 4.137,3.929 2.67,0 3.986,-1.36 3.986,-3.699 0,-1.763 -0.545,-2.913 -2.069,-4.313 L -3.648,4.14 C -4.438,3.412 -4.889,2.664 -5.02,2.147 H 0 Z"
             style="fill:#000000;fill-opacity:1;fill-rule:nonzero;stroke:none"
             id="path24" /></g><g
           id="g26"
           transform="translate(18.5962,8.012)"><path
             d="M 0,0 4.043,6.133 H 0.188 V 8.28 h 6.92 V 6.249 L 3.065,0.115 h 4.043 v -2.147 l -7.108,0 z"
             style="fill:#000000;fill-opacity:1;fill-rule:nonzero;stroke:none"
             id="path28" /></g><g
           id="g30"
           transform="translate(4.348,4.3601)"><path
             d="m 0,0 c 1.024,-0.652 8.996,-5.377 16.846,0.044 0.055,0.038 0.358,0.131 0.477,-0.062 0.103,-0.157 0.047,-0.362 -0.048,-0.475 -0.766,-0.909 -4.578,-4.937 -11.047,-3.597 0,0 -3.718,0.855 -6.488,3.837 -0.027,0.029 -0.054,0.058 -0.081,0.087 0,0 -0.087,0.125 0.037,0.222 C -0.199,0.138 -0.073,0.046 0,0"
             style="fill:#fc9a1b;fill-opacity:1;fill-rule:nonzero;stroke:none"
             id="path32" /></g><g
           id="g34"
           transform="translate(29.1313,19.0701)"><path
             d="M 0,0 H 2.648 V -2.955 H 4.183 V -4.758 H 2.648 v -5.583 c 0,-0.806 0.172,-1.132 0.94,-1.132 0.211,0 0.422,0.019 0.595,0.038 v -1.841 C 3.607,-13.334 3.07,-13.392 2.456,-13.392 0.384,-13.392 0,-12.758 0,-10.667 v 5.909 h -1.343 v 1.803 H 0 Z"
             style="fill:#fc9a1b;fill-opacity:1;fill-rule:nonzero;stroke:none"
             id="path36" /></g><g
           id="g38"
           transform="translate(39.203,12.1249)"><path
             d="m 0,0 c -0.058,1.573 -0.25,2.456 -1.343,2.456 -1.055,0 -1.363,-1.094 -1.363,-2.053 V 0 Z m -2.706,-1.574 v -0.824 c 0,-1.209 0.327,-2.398 1.305,-2.398 0.883,0 1.247,0.671 1.401,1.937 H 2.379 C 2.283,-5.257 1.132,-6.6 -1.362,-6.6 c -3.838,0 -3.991,2.955 -3.991,5.526 0,2.762 0.537,5.333 4.105,5.333 3.09,0 3.78,-2.072 3.78,-5.238 v -0.595 z"
             style="fill:#fc9a1b;fill-opacity:1;fill-rule:nonzero;stroke:none"
             id="path40" /></g><g
           id="g42"
           transform="translate(48.085,12.3932)"><path
             d="m 0,0 c 0,0.998 -0.192,2.072 -1.19,2.072 -1.305,0 -1.516,-1.151 -1.516,-3.53 0,-2.551 0.23,-3.606 1.42,-3.606 0.883,0 1.286,0.747 1.286,2.416 h 2.532 c 0,-2.705 -1.132,-4.22 -3.933,-4.22 -2.647,0 -3.952,1.285 -3.952,5.429 0,4.24 1.746,5.43 4.183,5.43 2.436,0 3.702,-1.554 3.702,-3.991 z"
             style="fill:#fc9a1b;fill-opacity:1;fill-rule:nonzero;stroke:none"
             id="path44" /></g><g
           id="g46"
           transform="translate(51.9975,19.4921)"><path
             d="m 0,0 h 2.648 v -4.432 h 0.038 c 0.499,0.883 1.401,1.324 2.514,1.324 1.65,0 2.628,-0.902 2.628,-2.936 v -7.654 H 5.181 v 7.117 c 0,1.036 -0.346,1.439 -1.133,1.439 -0.901,0 -1.4,-0.556 -1.4,-1.708 v -6.848 H 0 Z"
             style="fill:#fc9a1b;fill-opacity:1;fill-rule:nonzero;stroke:none"
             id="path48" /></g><g
           id="g50"
           transform="translate(61.5891,16.1151)"><path
             d="m 0,0 h 2.533 v -1.208 h 0.038 c 0.557,1.017 1.516,1.477 2.629,1.477 1.65,0 2.628,-0.902 2.628,-2.936 v -7.655 H 5.18 v 7.118 c 0,1.036 -0.345,1.439 -1.132,1.439 -0.901,0 -1.4,-0.556 -1.4,-1.708 v -6.849 H 0 Z"
             style="fill:#fc9a1b;fill-opacity:1;fill-rule:nonzero;stroke:none"
             id="path52" /></g><g
           id="g54"
           transform="translate(74.9026,7.3287)"><path
             d="M 0,0 C 1.075,0 1.42,1.055 1.42,3.626 1.42,6.197 1.075,7.252 0,7.252 -1.304,7.252 -1.419,5.736 -1.419,3.626 -1.419,1.515 -1.304,0 0,0 m 0,9.055 c 3.185,0.058 4.067,-1.841 4.067,-5.429 0,-3.53 -1.036,-5.43 -4.067,-5.43 -3.184,-0.058 -4.067,1.842 -4.067,5.43 0,3.53 1.036,5.429 4.067,5.429"
             style="fill:#fc9a1b;fill-opacity:1;fill-rule:nonzero;stroke:none"
             id="path56" /></g><path
           d="m 80.485,19.492 h 2.648 V 5.794 h -2.648 z"
           style="fill:#fc9a1b;fill-opacity:1;fill-rule:nonzero;stroke:none"
           id="path58" /><g
           id="g60"
           transform="translate(88.7152,7.3287)"><path
             d="M 0,0 C 1.074,0 1.419,1.055 1.419,3.626 1.419,6.197 1.074,7.252 0,7.252 -1.305,7.252 -1.42,5.736 -1.42,3.626 -1.42,1.515 -1.305,0 0,0 m 0,9.055 c 3.184,0.058 4.067,-1.841 4.067,-5.429 0,-3.53 -1.036,-5.43 -4.067,-5.43 -3.185,-0.058 -4.067,1.842 -4.067,5.43 0,3.53 1.035,5.429 4.067,5.429"
             style="fill:#fc9a1b;fill-opacity:1;fill-rule:nonzero;stroke:none"
             id="path62" /></g><g
           id="g64"
           transform="translate(97.9613,7.9421)"><path
             d="m 0,0 c 1.113,0 1.439,1.209 1.439,2.955 0,2.513 -0.326,3.453 -1.382,3.453 -1.17,0 -1.381,-0.94 -1.381,-3.722 C -1.324,1.267 -1.113,0 0,0 M 3.971,8.173 V -1.63 c 0,-2.725 -1.209,-4.048 -4.297,-4.048 -2.245,0 -3.511,0.997 -3.511,2.762 h 2.532 c 0,-0.345 0.154,-0.614 0.403,-0.787 0.25,-0.172 0.557,-0.287 0.883,-0.287 1.074,0 1.458,0.806 1.458,1.861 v 1.362 H 1.401 c -0.538,-0.768 -1.363,-1.266 -2.207,-1.266 -2.111,0 -3.166,1.439 -3.166,5.218 0,2.418 0.365,5.257 3.243,5.257 0.729,0 1.631,-0.345 2.13,-1.42 h 0.038 v 1.151 z"
             style="fill:#fc9a1b;fill-opacity:1;fill-rule:nonzero;stroke:none"
             id="path66" /></g><g
           id="g68"
           transform="translate(103.984,4.3929)"><path
             d="m 0,0 c 0.23,-0.038 0.461,-0.057 0.691,-0.057 0.978,0 1.343,0.537 1.42,1.458 L -0.787,11.722 H 1.976 L 3.511,4.586 H 3.55 l 1.342,7.136 H 7.54 L 5.046,2.091 C 4.125,-1.477 3.531,-1.976 1.075,-1.976 H 0 Z"
             style="fill:#fc9a1b;fill-opacity:1;fill-rule:nonzero;stroke:none"
             id="path70" /></g><g
           id="g72"
           transform="translate(114.4395,9.17)"><path
             d="m 0,0 v -0.345 c 0,-0.902 0.479,-1.496 1.381,-1.496 0.806,0 1.343,0.402 1.343,1.228 0,0.671 -0.441,0.978 -0.959,1.169 l -1.861,0.672 c -1.458,0.518 -2.206,1.42 -2.206,2.878 0,1.708 1.074,3.108 3.798,3.108 2.399,0 3.53,-1.075 3.53,-2.936 V 3.856 H 2.648 C 2.648,4.892 2.34,5.411 1.477,5.411 0.806,5.411 0.23,5.027 0.23,4.298 0.23,3.799 0.498,3.377 1.381,3.089 L 2.973,2.552 c 1.669,-0.557 2.283,-1.401 2.283,-2.954 0,-2.169 -1.611,-3.243 -3.836,-3.243 -2.974,0 -3.799,1.305 -3.799,3.281 l 0,0.364 z"
             style="fill:#000000;fill-opacity:1;fill-rule:nonzero;stroke:none"
             id="path74" /></g><g
           id="g76"
           transform="translate(125.9875,12.1249)"><path
             d="m 0,0 c -0.058,1.573 -0.25,2.456 -1.343,2.456 -1.055,0 -1.363,-1.094 -1.363,-2.053 V 0 Z m -2.706,-1.574 v -0.824 c 0,-1.209 0.327,-2.398 1.305,-2.398 0.883,0 1.247,0.671 1.401,1.937 H 2.379 C 2.283,-5.257 1.132,-6.6 -1.362,-6.6 c -3.838,0 -3.991,2.955 -3.991,5.526 0,2.762 0.537,5.333 4.106,5.333 3.089,0 3.779,-2.072 3.779,-5.238 v -0.595 z"
             style="fill:#000000;fill-opacity:1;fill-rule:nonzero;stroke:none"
             id="path78" /></g><g
           id="g80"
           transform="translate(129.9001,16.1151)"><path
             d="m 0,0 h 2.533 v -1.381 h 0.038 c 0.537,0.998 1.285,1.65 2.379,1.65 0.153,0 0.326,-0.019 0.48,-0.038 v -2.533 c -0.269,0.019 -0.557,0.038 -0.825,0.038 -0.921,0 -1.957,-0.479 -1.957,-1.861 v -6.197 H 0 Z"
             style="fill:#000000;fill-opacity:1;fill-rule:nonzero;stroke:none"
             id="path82" /></g><g
           id="g84"
           transform="translate(141.5253,16.1151)"><path
             d="M 0,0 H 2.648 L 0.057,-10.322 H -3.012 L -5.679,0 h 2.763 l 1.477,-7.386 H -1.4 Z"
             style="fill:#000000;fill-opacity:1;fill-rule:nonzero;stroke:none"
             id="path86" /></g><path
           d="m 145.247,16.115 h 2.648 V 5.793 h -2.648 z m 0,3.531 h 2.648 v -2.264 h -2.648 z"
           style="fill:#000000;fill-opacity:1;fill-rule:nonzero;stroke:none"
           id="path88" /><g
           id="g90"
           transform="translate(154.7235,12.3932)"><path
             d="m 0,0 c 0,0.998 -0.192,2.072 -1.19,2.072 -1.305,0 -1.516,-1.151 -1.516,-3.53 0,-2.551 0.231,-3.606 1.42,-3.606 0.883,0 1.286,0.747 1.286,2.416 h 2.532 c 0,-2.705 -1.132,-4.22 -3.933,-4.22 -2.647,0 -3.952,1.285 -3.952,5.429 0,4.24 1.746,5.43 4.183,5.43 2.436,0 3.702,-1.554 3.702,-3.991 z"
             style="fill:#000000;fill-opacity:1;fill-rule:nonzero;stroke:none"
             id="path92" /></g><g
           id="g94"
           transform="translate(163.6055,12.1249)"><path
             d="m 0,0 c -0.058,1.573 -0.25,2.456 -1.343,2.456 -1.055,0 -1.363,-1.094 -1.363,-2.053 V 0 Z m -2.706,-1.574 v -0.824 c 0,-1.209 0.327,-2.398 1.305,-2.398 0.883,0 1.247,0.671 1.401,1.937 H 2.379 C 2.283,-5.257 1.132,-6.6 -1.362,-6.6 c -3.838,0 -3.991,2.955 -3.991,5.526 0,2.762 0.537,5.333 4.106,5.333 3.089,0 3.779,-2.072 3.779,-5.238 v -0.595 z"
             style="fill:#000000;fill-opacity:1;fill-rule:nonzero;stroke:none"
             id="path96" /></g><g
           id="g98"
           transform="translate(169.456,9.17)"><path
             d="m 0,0 v -0.345 c 0,-0.902 0.479,-1.496 1.382,-1.496 0.805,0 1.342,0.402 1.342,1.228 0,0.671 -0.441,0.978 -0.959,1.169 l -1.861,0.672 c -1.458,0.518 -2.206,1.42 -2.206,2.878 0,1.708 1.074,3.108 3.798,3.108 2.399,0 3.53,-1.075 3.53,-2.936 V 3.856 H 2.648 C 2.648,4.892 2.34,5.411 1.477,5.411 0.806,5.411 0.23,5.027 0.23,4.298 0.23,3.799 0.499,3.377 1.382,3.089 L 2.973,2.552 c 1.67,-0.557 2.283,-1.401 2.283,-2.954 0,-2.169 -1.611,-3.243 -3.836,-3.243 -2.974,0 -3.799,1.305 -3.799,3.281 l 0,0.364 z"
             style="fill:#000000;fill-opacity:1;fill-rule:nonzero;stroke:none"
             id="path100" /></g></g></g></g></svg>
