<?xml version="1.0" encoding="UTF-8" standalone="no"?>
<!-- Created with Inkscape (http://www.inkscape.org/) -->

<svg
   version="1.1"
   id="svg2"
   xml:space="preserve"
   width="346.43732"
   height="38.955467"
   viewBox="0 0 346.43732 38.955467"
   sodipodi:docname="a2z corp.ai"
   xmlns:inkscape="http://www.inkscape.org/namespaces/inkscape"
   xmlns:sodipodi="http://sodipodi.sourceforge.net/DTD/sodipodi-0.dtd"
   xmlns="http://www.w3.org/2000/svg"
   xmlns:svg="http://www.w3.org/2000/svg"><defs
     id="defs6"><clipPath
       clipPathUnits="userSpaceOnUse"
       id="clipPath16"><path
         d="M 0,29.217 H 259.828 V 0 H 0 Z"
         id="path14" /></clipPath></defs><sodipodi:namedview
     id="namedview4"
     pagecolor="#ffffff"
     bordercolor="#666666"
     borderopacity="1.0"
     inkscape:pageshadow="2"
     inkscape:pageopacity="0.0"
     inkscape:pagecheckerboard="0" /><g
     id="g8"
     inkscape:groupmode="layer"
     inkscape:label="a2z corp"
     transform="matrix(1.3333333,0,0,-1.3333333,0,38.955467)"><g
       id="g10"><g
         id="g12"
         clip-path="url(#clipPath16)"><g
           id="g18"
           transform="translate(7.5222,16.5618)"><path
             d="m 0,0 c -0.531,-0.399 -1.174,-0.656 -1.65,-0.77 -1.566,-0.342 -2.181,-1.111 -2.181,-2.48 0,-1.168 0.42,-2.138 1.454,-2.138 1.035,0 2.377,0.685 2.377,2.366 z m -7.047,2.964 v 0.371 c 0,3.535 2.377,4.732 5.285,4.732 4.586,0 5.453,-1.939 5.453,-4.704 v -8.066 c 0,-1.426 0.084,-2.081 0.476,-2.965 H 0.475 C 0.224,-7.183 0.112,-6.585 0,-6.072 h -0.056 c -0.895,-1.596 -1.985,-1.995 -3.831,-1.995 -2.685,0 -3.635,2.337 -3.635,4.39 0,2.879 1.146,4.047 3.803,4.789 L -1.538,1.71 C -0.392,2.024 0,2.48 0,3.506 0,4.675 -0.503,5.387 -1.79,5.387 -2.964,5.387 -3.579,4.589 -3.579,3.392 V 2.964 Z"
             style="fill:#000000;fill-opacity:1;fill-rule:nonzero;stroke:none"
             id="path20" /></g><g
           id="g22"
           transform="translate(25.6983,8.8938)"><path
             d="m 0,0 h -12.192 c 0,3.592 1.426,6.072 4.362,8.837 l 1.622,1.539 c 1.762,1.625 2.07,2.537 2.07,4.618 0,1.681 -0.7,2.508 -1.958,2.508 -2.013,0 -2.209,-1.796 -2.237,-3.934 h -3.859 v 0.77 c 0,3.734 1.929,5.844 6.152,5.844 3.971,0 5.928,-2.024 5.928,-5.502 0,-2.622 -0.811,-4.333 -3.076,-6.414 L -5.425,6.157 C -6.599,5.074 -7.271,3.962 -7.466,3.193 H 0 Z"
             style="fill:#000000;fill-opacity:1;fill-rule:nonzero;stroke:none"
             id="path24" /></g><g
           id="g26"
           transform="translate(27.6558,11.9152)"><path
             d="M 0,0 6.012,9.122 H 0.28 v 3.192 H 10.57 V 9.293 L 4.558,0.171 h 6.012 v -3.192 l -10.57,0 z"
             style="fill:#000000;fill-opacity:1;fill-rule:nonzero;stroke:none"
             id="path28" /></g><g
           id="g30"
           transform="translate(6.4662,6.4842)"><path
             d="m 0,0 c 1.523,-0.969 13.378,-7.997 25.053,0.065 0.082,0.056 0.533,0.195 0.709,-0.092 0.154,-0.233 0.07,-0.538 -0.072,-0.706 -1.138,-1.351 -6.807,-7.342 -16.428,-5.349 0,0 -5.53,1.271 -9.649,5.705 -0.04,0.043 -0.08,0.086 -0.12,0.13 0,0 -0.129,0.186 0.055,0.331 C -0.295,0.205 -0.108,0.069 0,0"
             style="fill:#fc9a1b;fill-opacity:1;fill-rule:nonzero;stroke:none"
             id="path32" /></g><g
           id="g34"
           transform="translate(43.3235,28.3605)"><path
             d="M 0,0 H 3.938 V -4.395 H 6.221 V -7.076 H 3.938 v -8.303 c 0,-1.199 0.256,-1.683 1.398,-1.683 0.314,0 0.628,0.028 0.885,0.057 v -2.739 C 5.364,-19.83 4.565,-19.916 3.652,-19.916 0.571,-19.916 0,-18.974 0,-15.864 v 8.788 h -1.997 v 2.681 H 0 Z"
             style="fill:#fc9a1b;fill-opacity:1;fill-rule:nonzero;stroke:none"
             id="path36" /></g><g
           id="g38"
           transform="translate(58.3018,18.0318)"><path
             d="m 0,0 c -0.086,2.34 -0.372,3.652 -1.998,3.652 -1.569,0 -2.026,-1.626 -2.026,-3.053 V 0 Z m -4.024,-2.34 v -1.227 c 0,-1.798 0.486,-3.566 1.941,-3.566 1.312,0 1.855,0.999 2.083,2.882 h 3.537 c -0.142,-3.567 -1.854,-5.564 -5.563,-5.564 -5.707,0 -5.935,4.394 -5.935,8.217 0,4.108 0.799,7.932 6.106,7.932 4.594,0 5.621,-3.081 5.621,-7.789 V -2.34 Z"
             style="fill:#fc9a1b;fill-opacity:1;fill-rule:nonzero;stroke:none"
             id="path40" /></g><g
           id="g42"
           transform="translate(71.5109,18.4309)"><path
             d="m 0,0 c 0,1.484 -0.285,3.081 -1.769,3.081 -1.941,0 -2.255,-1.711 -2.255,-5.249 0,-3.795 0.343,-5.364 2.112,-5.364 1.313,0 1.912,1.112 1.912,3.594 h 3.766 c 0,-4.022 -1.684,-6.276 -5.849,-6.276 -3.937,0 -5.878,1.911 -5.878,8.074 0,6.306 2.597,8.075 6.22,8.075 3.624,0 5.507,-2.311 5.507,-5.935 z"
             style="fill:#fc9a1b;fill-opacity:1;fill-rule:nonzero;stroke:none"
             id="path44" /></g><g
           id="g46"
           transform="translate(77.3295,28.9881)"><path
             d="m 0,0 h 3.938 v -6.591 h 0.057 c 0.742,1.313 2.082,1.969 3.738,1.969 2.454,0 3.909,-1.342 3.909,-4.366 V -20.372 H 7.704 v 10.586 c 0,1.54 -0.513,2.139 -1.683,2.139 -1.341,0 -2.083,-0.827 -2.083,-2.539 V -20.372 H 0 Z"
             style="fill:#fc9a1b;fill-opacity:1;fill-rule:nonzero;stroke:none"
             id="path48" /></g><g
           id="g50"
           transform="translate(91.5939,23.966)"><path
             d="M 0,0 H 3.767 V -1.797 H 3.824 C 4.651,-0.284 6.077,0.4 7.733,0.4 c 2.454,0 3.909,-1.341 3.909,-4.366 V -15.35 H 7.704 v 10.586 c 0,1.54 -0.513,2.14 -1.683,2.14 -1.341,0 -2.083,-0.828 -2.083,-2.54 V -15.35 H 0 Z"
             style="fill:#fc9a1b;fill-opacity:1;fill-rule:nonzero;stroke:none"
             id="path52" /></g><g
           id="g54"
           transform="translate(111.3934,10.8991)"><path
             d="m 0,0 c 1.599,0 2.111,1.569 2.111,5.392 0,3.824 -0.512,5.393 -2.111,5.393 -1.94,0 -2.11,-2.254 -2.11,-5.393 C -2.11,2.254 -1.94,0 0,0 m 0,13.467 c 4.737,0.085 6.049,-2.739 6.049,-8.075 0,-5.25 -1.541,-8.074 -6.049,-8.074 -4.736,-0.087 -6.048,2.739 -6.048,8.074 0,5.25 1.541,8.075 6.048,8.075"
             style="fill:#fc9a1b;fill-opacity:1;fill-rule:nonzero;stroke:none"
             id="path56" /></g><path
           d="m 119.695,28.988 h 3.938 V 8.616 h -3.938 z"
           style="fill:#fc9a1b;fill-opacity:1;fill-rule:nonzero;stroke:none"
           id="path58" /><g
           id="g60"
           transform="translate(131.9352,10.8991)"><path
             d="m 0,0 c 1.598,0 2.111,1.569 2.111,5.392 0,3.824 -0.513,5.393 -2.111,5.393 -1.941,0 -2.112,-2.254 -2.112,-5.393 C -2.112,2.254 -1.941,0 0,0 m 0,13.467 c 4.736,0.085 6.048,-2.739 6.048,-8.075 0,-5.25 -1.541,-8.074 -6.048,-8.074 -4.737,-0.087 -6.049,2.739 -6.049,8.074 0,5.25 1.541,8.075 6.049,8.075"
             style="fill:#fc9a1b;fill-opacity:1;fill-rule:nonzero;stroke:none"
             id="path62" /></g><g
           id="g64"
           transform="translate(145.6857,11.8112)"><path
             d="M 0,0 C 1.654,0 2.14,1.798 2.14,4.395 2.14,8.132 1.654,9.53 0.085,9.53 -1.655,9.53 -1.969,8.132 -1.969,3.995 -1.969,1.884 -1.655,0 0,0 M 5.906,12.155 V -2.424 c 0,-4.053 -1.798,-6.021 -6.392,-6.021 -3.338,0 -5.221,1.484 -5.221,4.108 h 3.766 c 0,-0.513 0.229,-0.913 0.599,-1.17 0.372,-0.256 0.828,-0.427 1.313,-0.427 1.598,0 2.169,1.198 2.169,2.767 v 2.026 H 2.083 c -0.799,-1.141 -2.026,-1.883 -3.281,-1.883 -3.14,0 -4.709,2.14 -4.709,7.761 0,3.595 0.543,7.818 4.822,7.818 1.085,0 2.426,-0.514 3.168,-2.112 H 2.14 v 1.712 z"
             style="fill:#fc9a1b;fill-opacity:1;fill-rule:nonzero;stroke:none"
             id="path66" /></g><g
           id="g68"
           transform="translate(154.6425,6.533)"><path
             d="m 0,0 c 0.342,-0.057 0.686,-0.085 1.028,-0.085 1.454,0 1.996,0.799 2.111,2.168 L -1.17,17.433 H 2.939 L 5.221,6.82 h 0.058 l 1.997,10.613 h 3.937 L 7.504,3.11 C 6.134,-2.197 5.251,-2.938 1.599,-2.938 H 0 Z"
             style="fill:#fc9a1b;fill-opacity:1;fill-rule:nonzero;stroke:none"
             id="path70" /></g><g
           id="g72"
           transform="translate(170.1917,13.6373)"><path
             d="m 0,0 v -0.513 c 0,-1.342 0.713,-2.225 2.055,-2.225 1.197,0 1.996,0.598 1.996,1.826 0,0.998 -0.656,1.454 -1.427,1.74 l -2.767,0.998 c -2.168,0.771 -3.281,2.112 -3.281,4.281 0,2.539 1.598,4.622 5.649,4.622 3.567,0 5.25,-1.599 5.25,-4.366 V 5.735 H 3.937 c 0,1.541 -0.457,2.312 -1.74,2.312 -0.999,0 -1.855,-0.571 -1.855,-1.655 0,-0.742 0.399,-1.37 1.713,-1.798 L 4.422,3.795 c 2.482,-0.827 3.395,-2.083 3.395,-4.393 0,-3.225 -2.396,-4.823 -5.706,-4.823 -4.422,0 -5.649,1.94 -5.649,4.88 l 0,0.541 z"
             style="fill:#000000;fill-opacity:1;fill-rule:nonzero;stroke:none"
             id="path74" /></g><g
           id="g76"
           transform="translate(187.3656,18.0318)"><path
             d="m 0,0 c -0.086,2.34 -0.372,3.652 -1.998,3.652 -1.569,0 -2.026,-1.626 -2.026,-3.053 V 0 Z m -4.024,-2.34 v -1.227 c 0,-1.798 0.486,-3.566 1.941,-3.566 1.312,0 1.855,0.999 2.083,2.882 h 3.538 c -0.143,-3.567 -1.855,-5.564 -5.564,-5.564 -5.707,0 -5.935,4.394 -5.935,8.217 0,4.108 0.799,7.932 6.107,7.932 4.593,0 5.62,-3.081 5.62,-7.789 V -2.34 Z"
             style="fill:#000000;fill-opacity:1;fill-rule:nonzero;stroke:none"
             id="path78" /></g><g
           id="g80"
           transform="translate(193.1843,23.966)"><path
             d="M 0,0 H 3.767 V -2.054 H 3.824 C 4.622,-0.57 5.735,0.4 7.362,0.4 7.59,0.4 7.847,0.372 8.075,0.343 v -3.767 c -0.399,0.029 -0.828,0.057 -1.227,0.057 -1.37,0 -2.91,-0.713 -2.91,-2.767 V -15.35 H 0 Z"
             style="fill:#000000;fill-opacity:1;fill-rule:nonzero;stroke:none"
             id="path82" /></g><g
           id="g84"
           transform="translate(210.4731,23.966)"><path
             d="M 0,0 H 3.938 L 0.085,-15.35 H -4.479 L -8.446,0 h 4.109 l 2.197,-10.985 h 0.057 z"
             style="fill:#000000;fill-opacity:1;fill-rule:nonzero;stroke:none"
             id="path86" /></g><path
           d="m 216.007,23.966 h 3.937 V 8.616 h -3.937 z m 0,5.251 h 3.937 V 25.85 h -3.937 z"
           style="fill:#000000;fill-opacity:1;fill-rule:nonzero;stroke:none"
           id="path88" /><g
           id="g90"
           transform="translate(230.1011,18.4309)"><path
             d="m 0,0 c 0,1.484 -0.285,3.081 -1.769,3.081 -1.941,0 -2.255,-1.711 -2.255,-5.249 0,-3.795 0.343,-5.364 2.112,-5.364 1.313,0 1.912,1.112 1.912,3.594 h 3.766 c 0,-4.022 -1.684,-6.276 -5.849,-6.276 -3.938,0 -5.878,1.911 -5.878,8.074 0,6.306 2.596,8.075 6.22,8.075 3.624,0 5.507,-2.311 5.507,-5.935 z"
             style="fill:#000000;fill-opacity:1;fill-rule:nonzero;stroke:none"
             id="path92" /></g><g
           id="g94"
           transform="translate(243.3102,18.0318)"><path
             d="m 0,0 c -0.086,2.34 -0.372,3.652 -1.998,3.652 -1.569,0 -2.026,-1.626 -2.026,-3.053 V 0 Z m -4.024,-2.34 v -1.227 c 0,-1.798 0.486,-3.566 1.941,-3.566 1.312,0 1.855,0.999 2.083,2.882 h 3.537 c -0.142,-3.567 -1.854,-5.564 -5.563,-5.564 -5.707,0 -5.935,4.394 -5.935,8.217 0,4.108 0.799,7.932 6.106,7.932 4.594,0 5.621,-3.081 5.621,-7.789 V -2.34 Z"
             style="fill:#000000;fill-opacity:1;fill-rule:nonzero;stroke:none"
             id="path96" /></g><g
           id="g98"
           transform="translate(252.011,13.6373)"><path
             d="m 0,0 v -0.513 c 0,-1.342 0.713,-2.225 2.055,-2.225 1.197,0 1.996,0.598 1.996,1.826 0,0.998 -0.656,1.454 -1.427,1.74 l -2.767,0.998 c -2.168,0.771 -3.281,2.112 -3.281,4.281 0,2.539 1.598,4.622 5.649,4.622 3.567,0 5.25,-1.599 5.25,-4.366 V 5.735 H 3.938 c 0,1.541 -0.457,2.312 -1.741,2.312 -0.999,0 -1.855,-0.571 -1.855,-1.655 0,-0.742 0.399,-1.37 1.713,-1.798 L 4.422,3.795 c 2.482,-0.827 3.395,-2.083 3.395,-4.393 0,-3.225 -2.396,-4.823 -5.706,-4.823 -4.422,0 -5.649,1.94 -5.649,4.88 l 0,0.541 z"
             style="fill:#000000;fill-opacity:1;fill-rule:nonzero;stroke:none"
             id="path100" /></g></g></g></g></svg>
